<?xml version="1.0" encoding="UTF-8"?> <svg xmlns="http://www.w3.org/2000/svg" xmlns:svg="http://www.w3.org/2000/svg" width="193" height="80" clip-rule="evenodd" fill-rule="evenodd" stroke-linejoin="round" version="1.1" xml:space="preserve"> <g class="layer"> <title>Layer 1</title> <g id="svg_1" transform="matrix(1,0,0,1,179.046,25.452)"> <path d="m0,29.02l2.62,-6.4l2.62,6.4l-5.24,0zm2.25,-11.07l-6.83,16.53l2.37,0l1.34,-3.32l6.97,0l1.35,3.32l2.36,0l-6.83,-16.53l-0.73,0zm-22.16,0l-0.73,0l0,16.53l2.21,0l0,-11.59l10.38,11.8l0.73,0l0,-16.53l-2.21,0l0,11.58l-10.38,-11.79zm-57.56,0l-0.73,0l0,16.53l2.21,0l0,-11.59l10.38,11.8l0.73,0l0,-16.53l-2.21,0l0,11.58l-10.38,-11.79zm-4.99,0.21l-10.17,0l0,16.32l10.49,0l0,-2.14l-8.19,0l0,-3.62l7.02,0l0,-2.12l-7.02,0l0,-6.3l7.87,0l0,-2.14zm-35.24,10.86l2.62,-6.4l2.62,6.4l-5.24,0zm2.26,-11.07l-6.84,16.53l2.37,0l1.35,-3.32l6.96,0l1.35,3.32l2.37,0l-6.84,-16.53l-0.72,0zm-58.72,16.92l19.6,19.6c1.59,0 3.17,-0.15 4.73,-0.46l-21.73,-21.73l-2.6,2.59zm14.43,19.02l-16.72,-16.72l-2.6,2.59l7.84,7.83c3.26,3.27 7.26,5.36 11.48,6.3m-13.74,-67.08c-1.42,2.09 -1.65,2.14 -1.65,2.14c0,0 1.34,0.41 2.17,-0.82c1.42,-2.09 1.67,-2.14 1.67,-2.14c0,0 -1.35,-0.42 -2.19,0.82m6.36,-6.55c0.41,0 0.75,-0.33 0.75,-0.75c0,-0.41 -0.34,-0.75 -0.75,-0.75c-0.42,0 -0.75,0.34 -0.75,0.75c0,0.42 0.33,0.75 0.75,0.75m9.66,26.58l1.67,0l0,-1.41l-1.67,0l0,-1.66l-1.41,0l0,1.66l-1.66,0l0,1.41l1.66,0l0,1.66l0.49,0l0,2.16l0.44,0l0,-2.16l0.48,0l0,-1.66zm7.94,8.52l-6.85,6.83l-1.57,-1.57c-2.67,-2.67 -3.4,-5.95 -3.66,-10.05c-0.13,-1.9 -0.19,-3.97 -0.19,-6.32l0,-4.05l7.2,0l0,4.05c0,4.26 1.56,7.65 5.07,11.11m-3.79,-18.54l-0.82,1.97l-17.23,0l-0.82,-1.98c0.55,0.24 1.16,0.37 1.79,0.37c1.6,0 3.01,-0.82 3.82,-2.07c0.82,1.25 2.22,2.07 3.83,2.07c1.59,0 3,-0.82 3.82,-2.07c0.81,1.25 2.22,2.07 3.82,2.07c0.63,0 1.24,-0.13 1.79,-0.37m-1.87,-6.14c-0.84,1.66 -0.94,3.51 -0.42,5.16c-1.17,-0.18 -2.12,-0.98 -2.53,-2.05c0.23,-0.21 0.37,-0.51 0.37,-0.85c0,-0.64 -0.52,-1.16 -1.16,-1.16c-0.65,0 -1.17,0.52 -1.17,1.16c0,0.34 0.15,0.64 0.38,0.85c-0.47,1.22 -1.65,2.09 -3.03,2.09c-1.39,0 -2.57,-0.87 -3.04,-2.09c0.24,-0.21 0.38,-0.51 0.38,-0.85c0,-0.64 -0.52,-1.16 -1.17,-1.16c-0.64,0 -1.16,0.52 -1.16,1.16c0,0.34 0.14,0.64 0.37,0.85c-0.47,1.22 -1.65,2.1 -3.03,2.09c-0.16,0 -0.31,-0.01 -0.45,-0.04c0.01,-0.56 0.09,-1.99 0.63,-3.37c1.3,-3.31 5.48,-4.95 7.41,-6.32c0.53,-0.38 1.61,-1.45 1.58,-2.86c-0.02,-1.62 -1.31,-2.94 -2.93,-2.94c-1.52,0 -3.72,1.71 -4.76,2.74c-0.3,-0.47 -0.63,-0.71 -1.11,-0.88c0.95,-1.66 1.3,-3.19 1.55,-4.91c0.64,0.27 1.33,0.42 2.06,0.42c1.22,0 2.34,-0.41 3.24,-1.11c1.08,1.1 2.59,1.79 4.25,1.79c0.13,0 0.25,0 0.38,-0.01c0.15,1.68 0.96,3.17 2.17,4.22c-0.72,0.59 -1.31,1.25 -1.88,2.1c-1.24,1.82 -2.55,2.74 -3.42,3.19c-0.79,0.41 -1.38,0.52 -1.56,0.55c0.1,0.46 0.15,0.91 0.15,1.4c0,0.87 -0.16,1.71 -0.46,2.47l1.23,0.48c0.35,-0.92 0.55,-1.91 0.55,-2.95c0,-0.12 -0.01,-0.24 -0.01,-0.36c1.21,-0.47 3.02,-1.54 4.69,-3.99c1.37,-2.02 2.91,-2.81 4.15,-3.11c-0.28,0.67 -0.47,1.39 -0.53,2.14c-0.1,1.25 0.14,2.44 0.64,3.49c-0.98,0.64 -1.8,1.54 -2.36,2.66m-15.67,9.53l7.65,0l0,4.05c0,1.2 0.01,3.72 0.19,6.41c0.17,2.64 0.54,5.16 1.6,7.43l-3.73,1.87l0,-14.53l-8.29,0l2.58,-5.23zm-2.62,6.64l6.92,0l0,13.83l-4.06,2.04c0.11,-2.24 0.14,-5.54 -0.31,-8.08c-0.53,-2.93 -1.78,-6.06 -2.55,-7.79m17.1,17.34l8.87,-8.85l-0.59,-0.55c-3.56,-3.34 -5.09,-6.49 -5.09,-10.53l0,-4.32l2.44,-5.91c0.44,-0.16 0.76,-0.59 0.76,-1.09c0,-0.64 -0.52,-1.16 -1.16,-1.16c-0.65,0 -1.17,0.52 -1.17,1.16c0,0.29 0.1,0.55 0.28,0.76c-0.35,1 -1.18,1.78 -2.21,2.06c-0.53,-1.41 -0.5,-3.03 0.23,-4.49c0.66,-1.31 1.76,-2.25 3.04,-2.73c-0.84,-1.07 -1.3,-2.44 -1.18,-3.9c0.12,-1.46 0.79,-2.75 1.79,-3.66c-0.64,-0.15 -2.68,-0.46 -4.9,0.84c-1.21,-0.92 -2,-2.38 -2,-4.01c0,-0.37 0.05,-0.73 0.12,-1.07c-0.55,0.22 -1.15,0.35 -1.78,0.35c-1.8,0 -3.36,-1.03 -4.14,-2.53c-0.7,1.11 -1.94,1.84 -3.35,1.84c-1.39,0 -2.62,-0.72 -3.32,-1.81c0.29,3.28 -0.69,7.15 -3.49,9.21l0.76,1c0.45,-0.34 0.92,-0.73 1.32,-1.14c0.17,-0.18 0.34,-0.29 0.58,-0.28c0.35,0.01 0.65,0.29 0.65,0.67c0,0.17 -0.06,0.29 -0.12,0.41c-0.2,0.39 -0.31,0.83 -0.31,1.3c0,0.44 0.1,0.87 0.28,1.25l1.15,-0.54c-0.54,-1.15 0.38,-2.22 1.83,-3.3c1.03,-0.77 2.13,-1.5 2.93,-1.5c0.89,0 1.62,0.73 1.62,1.62c0,1 -0.99,1.8 -1.76,2.28c-2.86,1.81 -5.74,3.12 -7.08,6.29c-0.56,1.33 -0.73,2.7 -0.79,3.48c-0.74,-0.5 -1.15,-1.23 -1.3,-1.64c0.18,-0.21 0.28,-0.47 0.28,-0.76c0,-0.64 -0.52,-1.16 -1.16,-1.16c-0.64,0 -1.17,0.52 -1.17,1.16c0,0.5 0.32,0.93 0.76,1.09l2.45,5.93l-3.06,6.18c0,0 2.31,4.64 3.04,8.75c0.72,3.99 0.15,10.19 0.15,10.19l11.42,-5.75c0.49,0.8 1.09,1.57 1.81,2.3c1.92,1.92 2.57,2.56 2.57,2.56m2.41,6.15l-7.84,-7.83l-2.58,2.59l16.72,16.72c-0.94,-4.22 -3.04,-8.21 -6.3,-11.48m6.42,21.38c0.31,-1.56 0.46,-3.14 0.45,-4.72l-19.6,-19.6l-2.59,2.59l21.74,21.73zm19,-40.68c2.91,0 4.8,-0.81 6.54,-2.39l0,-5.67l-6.91,0l0,2.14l4.68,0l0,2.46c-1.11,0.88 -2.52,1.3 -4.31,1.3c-3.56,0 -6.13,-2.6 -6.13,-6.18c0,-3.52 2.52,-6.18 5.85,-6.18c2.85,0 3.95,1.27 4.81,2.22l1.65,-1.54c-1.46,-1.7 -3.37,-2.85 -6.41,-2.85c-4.64,0 -8.27,3.67 -8.27,8.35c0,4.76 3.65,8.34 8.5,8.34m0.57,23.66l6.84,-16.53l-2.49,0l-4.71,11.73l-4.72,-11.73l-2.48,0l6.83,16.53l0.73,0zm9.96,-23.84l10.48,0l0,-2.14l-8.18,0l0,-3.63l7.02,0l0,-2.11l-7.02,0l0,-6.3l7.86,0l0,-2.14l-10.16,0l0,16.32zm15.16,7.31l-2.3,0l0,16.32l9.5,0l0,-2.14l-7.2,0l0,-14.18zm11.86,-7.1l0.73,0l0,-16.53l-2.21,0l0,11.58l-10.39,-11.8l-0.72,0l0,16.54l2.21,0l0,-11.59l10.38,11.8zm5.29,-0.21l10.48,0l0,-2.14l-8.19,0l0,-3.63l7.03,0l0,-2.11l-7.03,0l0,-6.3l7.87,0l0,-2.14l-10.16,0l0,16.32zm18.65,-6.63l-1.92,0l0,-7.55l1.92,0c3.05,0 4.53,1.24 4.53,3.79c0,2.53 -1.48,3.76 -4.53,3.76m7.02,6.63l-3.52,-5.16c2.23,-0.96 3.4,-2.77 3.4,-5.23c0,-3.72 -2.54,-5.93 -6.81,-5.93l-4.32,0l0,16.32l2.31,0l0,-4.51l2.01,0c0.41,0 0.76,-0.02 1.08,-0.06l3.06,4.57l2.79,0zm6.72,7.13c-4.71,0 -8.25,3.59 -8.25,8.34c0,4.76 3.54,8.34 8.29,8.34c3.33,0 5.53,-1.43 7.06,-3.6l-1.83,-1.29c-1.14,1.61 -2.77,2.73 -5.18,2.73c-3.46,0 -5.98,-2.6 -5.98,-6.18c0,-3.52 2.52,-6.18 5.86,-6.18c2.41,0 3.85,1.09 4.89,2.53l1.8,-1.3c-1.38,-1.96 -3.51,-3.39 -6.66,-3.39m5.1,-12.6l-5.23,0l2.62,-6.39l2.61,6.39zm2.22,5.47l2.37,0l-6.84,-16.54l-0.73,0l-6.83,16.54l2.37,0l1.34,-3.33l6.97,0l1.35,3.33zm5.47,7.31l-2.33,0l0,16.32l2.33,0l0,-16.32zm-0.36,-7.31l9.5,0l0,-2.14l-7.2,0l0,-14.18l-2.3,0l0,16.32zm12.51,0l2.32,0l0,-16.32l-2.32,0l0,16.32zm0.4,18.17l-5.23,0l2.61,-6.4l2.62,6.4zm2.21,5.46l2.37,0l-6.84,-16.53l-0.72,0l-6.84,16.53l2.37,0l1.35,-3.32l6.96,0l1.35,3.32zm9.83,-37.81l4.79,0l0,-2.14l-11.9,0l0,2.14l4.82,0l0,14.18l2.29,0l0,-14.18zm13.58,8.71l-5.23,0l2.62,-6.39l2.61,6.39zm4.59,5.47l-6.84,-16.54l-0.73,0l-6.83,16.54l2.37,0l1.34,-3.33l6.97,0l1.35,3.33l2.37,0zm11.03,-14.18l0,-2.14l-12.08,0l0,2.14l4.81,0l0,14.18l2.3,0l0,-14.18l4.97,0z" fill="#003DA5" fill-rule="nonzero" id="svg_2"></path> </g> </g> </svg> 